<svg xmlns="http://www.w3.org/2000/svg" viewBox="0 0 38 26" role="img" aria-label="United States">
  <rect width="38" height="26" fill="#ffffff"/>
  <g fill="#B22234">
    <rect y="0" width="38" height="2"/>
    <rect y="4" width="38" height="2"/>
    <rect y="8" width="38" height="2"/>
    <rect y="12" width="38" height="2"/>
    <rect y="16" width="38" height="2"/>
    <rect y="20" width="38" height="2"/>
    <rect y="24" width="38" height="2"/>
  </g>
  <rect width="15.2" height="14" fill="#3C3B6E"/>
  <g fill="#ffffff">
    <circle cx="2.0" cy="2.0" r="0.7"/><circle cx="4.8" cy="2.0" r="0.7"/><circle cx="7.6" cy="2.0" r="0.7"/><circle cx="10.4" cy="2.0" r="0.7"/><circle cx="13.2" cy="2.0" r="0.7"/>
    <circle cx="3.4" cy="4.5" r="0.7"/><circle cx="6.2" cy="4.5" r="0.7"/><circle cx="9.0" cy="4.5" r="0.7"/><circle cx="11.8" cy="4.5" r="0.7"/>
    <circle cx="2.0" cy="7.0" r="0.7"/><circle cx="4.8" cy="7.0" r="0.7"/><circle cx="7.6" cy="7.0" r="0.7"/><circle cx="10.4" cy="7.0" r="0.7"/><circle cx="13.2" cy="7.0" r="0.7"/>
    <circle cx="3.4" cy="9.5" r="0.7"/><circle cx="6.2" cy="9.5" r="0.7"/><circle cx="9.0" cy="9.5" r="0.7"/><circle cx="11.8" cy="9.5" r="0.7"/>
    <circle cx="2.0" cy="12.0" r="0.7"/><circle cx="4.8" cy="12.0" r="0.7"/><circle cx="7.6" cy="12.0" r="0.7"/><circle cx="10.4" cy="12.0" r="0.7"/><circle cx="13.2" cy="12.0" r="0.7"/>
  </g>
</svg>
